<?xml version="1.0" encoding="UTF-8" standalone="no"?>
<!DOCTYPE svg PUBLIC "-//W3C//DTD SVG 1.1//EN"
 "http://www.w3.org/Graphics/SVG/1.1/DTD/svg11.dtd">
<!-- Generated by graphviz version 2.38.0 (20140413.2041)
 -->
<!-- Title: Tree Pages: 1 -->
<svg width="340pt" height="314pt"
 viewBox="0.00 0.00 340.00 314.00" xmlns="http://www.w3.org/2000/svg" xmlns:xlink="http://www.w3.org/1999/xlink">
<g id="graph0" class="graph" transform="scale(1 1) rotate(0) translate(4 310)">
<title>Tree</title>
<polygon fill="white" stroke="none" points="-4,4 -4,-310 336,-310 336,4 -4,4"/>
<!-- 0 -->
<g id="node1" class="node"><title>0</title>
<polygon fill="none" stroke="black" points="201.5,-306 57.5,-306 57.5,-223 201.5,-223 201.5,-306"/>
<text text-anchor="start" x="65.5" y="-290.8" font-family="Times New Roman,serif" font-size="14.00">base_happiness ≤ 17.5</text>
<text text-anchor="start" x="99.5" y="-275.8" font-family="Times New Roman,serif" font-size="14.00">gini = 0.18</text>
<text text-anchor="start" x="88.5" y="-260.8" font-family="Times New Roman,serif" font-size="14.00">samples = 283</text>
<text text-anchor="start" x="82" y="-245.8" font-family="Times New Roman,serif" font-size="14.00">value = [404, 45]</text>
<text text-anchor="start" x="68.5" y="-230.8" font-family="Times New Roman,serif" font-size="14.00">class = Not legendary</text>
</g>
<!-- 1 -->
<g id="node2" class="node"><title>1</title>
<polygon fill="none" stroke="black" points="113,-179.5 0,-179.5 0,-111.5 113,-111.5 113,-179.5"/>
<text text-anchor="start" x="30" y="-164.3" font-family="Times New Roman,serif" font-size="14.00">gini = 0.0</text>
<text text-anchor="start" x="19" y="-149.3" font-family="Times New Roman,serif" font-size="14.00">samples = 10</text>
<text text-anchor="start" x="15.5" y="-134.3" font-family="Times New Roman,serif" font-size="14.00">value = [0, 24]</text>
<text text-anchor="start" x="8" y="-119.3" font-family="Times New Roman,serif" font-size="14.00">class = legendary</text>
</g>
<!-- 0&#45;&gt;1 -->
<g id="edge1" class="edge"><title>0&#45;&gt;1</title>
<path fill="none" stroke="black" d="M104.173,-222.907C97.2194,-211.763 89.667,-199.658 82.6672,-188.439"/>
<polygon fill="black" stroke="black" points="85.4568,-186.298 77.1939,-179.667 79.518,-190.004 85.4568,-186.298"/>
<text text-anchor="middle" x="71.5537" y="-200.322" font-family="Times New Roman,serif" font-size="14.00">True</text>
</g>
<!-- 2 -->
<g id="node3" class="node"><title>2</title>
<polygon fill="none" stroke="black" points="275.5,-187 131.5,-187 131.5,-104 275.5,-104 275.5,-187"/>
<text text-anchor="start" x="139.5" y="-171.8" font-family="Times New Roman,serif" font-size="14.00">base_happiness ≤ 80.0</text>
<text text-anchor="start" x="170" y="-156.8" font-family="Times New Roman,serif" font-size="14.00">gini = 0.094</text>
<text text-anchor="start" x="162.5" y="-141.8" font-family="Times New Roman,serif" font-size="14.00">samples = 273</text>
<text text-anchor="start" x="156" y="-126.8" font-family="Times New Roman,serif" font-size="14.00">value = [404, 21]</text>
<text text-anchor="start" x="142.5" y="-111.8" font-family="Times New Roman,serif" font-size="14.00">class = Not legendary</text>
</g>
<!-- 0&#45;&gt;2 -->
<g id="edge2" class="edge"><title>0&#45;&gt;2</title>
<path fill="none" stroke="black" d="M155.174,-222.907C160.742,-214.105 166.688,-204.703 172.438,-195.612"/>
<polygon fill="black" stroke="black" points="175.484,-197.343 177.871,-187.021 169.568,-193.601 175.484,-197.343"/>
<text text-anchor="middle" x="183.362" y="-207.71" font-family="Times New Roman,serif" font-size="14.00">False</text>
</g>
<!-- 3 -->
<g id="node4" class="node"><title>3</title>
<polygon fill="none" stroke="black" points="200.5,-68 62.5,-68 62.5,-0 200.5,-0 200.5,-68"/>
<text text-anchor="start" x="98" y="-52.8" font-family="Times New Roman,serif" font-size="14.00">gini = 0.043</text>
<text text-anchor="start" x="90.5" y="-37.8" font-family="Times New Roman,serif" font-size="14.00">samples = 262</text>
<text text-anchor="start" x="87.5" y="-22.8" font-family="Times New Roman,serif" font-size="14.00">value = [401, 9]</text>
<text text-anchor="start" x="70.5" y="-7.8" font-family="Times New Roman,serif" font-size="14.00">class = Not legendary</text>
</g>
<!-- 2&#45;&gt;3 -->
<g id="edge3" class="edge"><title>2&#45;&gt;3</title>
<path fill="none" stroke="black" d="M176.69,-103.726C170.932,-94.9703 164.839,-85.7032 159.054,-76.9051"/>
<polygon fill="black" stroke="black" points="161.814,-74.7322 153.396,-68.2996 155.965,-78.5781 161.814,-74.7322"/>
</g>
<!-- 4 -->
<g id="node5" class="node"><title>4</title>
<polygon fill="none" stroke="black" points="332,-68 219,-68 219,-0 332,-0 332,-68"/>
<text text-anchor="start" x="245.5" y="-52.8" font-family="Times New Roman,serif" font-size="14.00">gini = 0.32</text>
<text text-anchor="start" x="238" y="-37.8" font-family="Times New Roman,serif" font-size="14.00">samples = 11</text>
<text text-anchor="start" x="234.5" y="-22.8" font-family="Times New Roman,serif" font-size="14.00">value = [3, 12]</text>
<text text-anchor="start" x="227" y="-7.8" font-family="Times New Roman,serif" font-size="14.00">class = legendary</text>
</g>
<!-- 2&#45;&gt;4 -->
<g id="edge4" class="edge"><title>2&#45;&gt;4</title>
<path fill="none" stroke="black" d="M230.31,-103.726C236.068,-94.9703 242.161,-85.7032 247.946,-76.9051"/>
<polygon fill="black" stroke="black" points="251.035,-78.5781 253.604,-68.2996 245.186,-74.7322 251.035,-78.5781"/>
</g>
</g>
</svg>
