<?xml version="1.0" encoding="UTF-8" standalone="no"?>
<!DOCTYPE svg PUBLIC "-//W3C//DTD SVG 1.1//EN"
 "http://www.w3.org/Graphics/SVG/1.1/DTD/svg11.dtd">
<!-- Generated by graphviz version 2.38.0 (20140413.2041)
 -->
<!-- Title: Tree Pages: 1 -->
<svg width="644pt" height="433pt"
 viewBox="0.00 0.00 643.50 433.00" xmlns="http://www.w3.org/2000/svg" xmlns:xlink="http://www.w3.org/1999/xlink">
<g id="graph0" class="graph" transform="scale(1 1) rotate(0) translate(4 429)">
<title>Tree</title>
<polygon fill="white" stroke="none" points="-4,4 -4,-429 639.5,-429 639.5,4 -4,4"/>
<!-- 0 -->
<g id="node1" class="node"><title>0</title>
<polygon fill="none" stroke="black" points="427,-425 262,-425 262,-342 427,-342 427,-425"/>
<text text-anchor="start" x="270" y="-409.8" font-family="Times New Roman,serif" font-size="14.00">base_egg_steps ≤ 15360.0</text>
<text text-anchor="start" x="311" y="-394.8" font-family="Times New Roman,serif" font-size="14.00">gini = 0.175</text>
<text text-anchor="start" x="303.5" y="-379.8" font-family="Times New Roman,serif" font-size="14.00">samples = 764</text>
<text text-anchor="start" x="297" y="-364.8" font-family="Times New Roman,serif" font-size="14.00">value = [690, 74]</text>
<text text-anchor="start" x="283.5" y="-349.8" font-family="Times New Roman,serif" font-size="14.00">class = Not legendary</text>
</g>
<!-- 1 -->
<g id="node2" class="node"><title>1</title>
<polygon fill="none" stroke="black" points="339.5,-306 201.5,-306 201.5,-223 339.5,-223 339.5,-306"/>
<text text-anchor="start" x="219.5" y="-290.8" font-family="Times New Roman,serif" font-size="14.00">capture_rate ≤ 9.0</text>
<text text-anchor="start" x="237" y="-275.8" font-family="Times New Roman,serif" font-size="14.00">gini = 0.017</text>
<text text-anchor="start" x="229.5" y="-260.8" font-family="Times New Roman,serif" font-size="14.00">samples = 694</text>
<text text-anchor="start" x="226.5" y="-245.8" font-family="Times New Roman,serif" font-size="14.00">value = [688, 6]</text>
<text text-anchor="start" x="209.5" y="-230.8" font-family="Times New Roman,serif" font-size="14.00">class = Not legendary</text>
</g>
<!-- 0&#45;&gt;1 -->
<g id="edge1" class="edge"><title>0&#45;&gt;1</title>
<path fill="none" stroke="black" d="M318.826,-341.907C313.258,-333.105 307.312,-323.703 301.562,-314.612"/>
<polygon fill="black" stroke="black" points="304.432,-312.601 296.129,-306.021 298.516,-316.343 304.432,-312.601"/>
<text text-anchor="middle" x="290.638" y="-326.71" font-family="Times New Roman,serif" font-size="14.00">True</text>
</g>
<!-- 6 -->
<g id="node7" class="node"><title>6</title>
<polygon fill="none" stroke="black" points="479.5,-306 357.5,-306 357.5,-223 479.5,-223 479.5,-306"/>
<text text-anchor="start" x="365.5" y="-290.8" font-family="Times New Roman,serif" font-size="14.00">RKS System ≤ 0.5</text>
<text text-anchor="start" x="385" y="-275.8" font-family="Times New Roman,serif" font-size="14.00">gini = 0.056</text>
<text text-anchor="start" x="381" y="-260.8" font-family="Times New Roman,serif" font-size="14.00">samples = 70</text>
<text text-anchor="start" x="377.5" y="-245.8" font-family="Times New Roman,serif" font-size="14.00">value = [2, 68]</text>
<text text-anchor="start" x="370" y="-230.8" font-family="Times New Roman,serif" font-size="14.00">class = legendary</text>
</g>
<!-- 0&#45;&gt;6 -->
<g id="edge6" class="edge"><title>0&#45;&gt;6</title>
<path fill="none" stroke="black" d="M370.174,-341.907C375.742,-333.105 381.688,-323.703 387.438,-314.612"/>
<polygon fill="black" stroke="black" points="390.484,-316.343 392.871,-306.021 384.568,-312.601 390.484,-316.343"/>
<text text-anchor="middle" x="398.362" y="-326.71" font-family="Times New Roman,serif" font-size="14.00">False</text>
</g>
<!-- 2 -->
<g id="node3" class="node"><title>2</title>
<polygon fill="none" stroke="black" points="183,-187 70,-187 70,-104 183,-104 183,-187"/>
<text text-anchor="start" x="93" y="-171.8" font-family="Times New Roman,serif" font-size="14.00">gen_3 ≤ 0.5</text>
<text text-anchor="start" x="93" y="-156.8" font-family="Times New Roman,serif" font-size="14.00">gini = 0.444</text>
<text text-anchor="start" x="92.5" y="-141.8" font-family="Times New Roman,serif" font-size="14.00">samples = 9</text>
<text text-anchor="start" x="89" y="-126.8" font-family="Times New Roman,serif" font-size="14.00">value = [3, 6]</text>
<text text-anchor="start" x="78" y="-111.8" font-family="Times New Roman,serif" font-size="14.00">class = legendary</text>
</g>
<!-- 1&#45;&gt;2 -->
<g id="edge2" class="edge"><title>1&#45;&gt;2</title>
<path fill="none" stroke="black" d="M220.54,-222.907C208.812,-213.379 196.221,-203.148 184.186,-193.37"/>
<polygon fill="black" stroke="black" points="186.34,-190.61 176.372,-187.021 181.926,-196.043 186.34,-190.61"/>
</g>
<!-- 5 -->
<g id="node6" class="node"><title>5</title>
<polygon fill="none" stroke="black" points="339.5,-179.5 201.5,-179.5 201.5,-111.5 339.5,-111.5 339.5,-179.5"/>
<text text-anchor="start" x="244" y="-164.3" font-family="Times New Roman,serif" font-size="14.00">gini = 0.0</text>
<text text-anchor="start" x="229.5" y="-149.3" font-family="Times New Roman,serif" font-size="14.00">samples = 685</text>
<text text-anchor="start" x="226.5" y="-134.3" font-family="Times New Roman,serif" font-size="14.00">value = [685, 0]</text>
<text text-anchor="start" x="209.5" y="-119.3" font-family="Times New Roman,serif" font-size="14.00">class = Not legendary</text>
</g>
<!-- 1&#45;&gt;5 -->
<g id="edge5" class="edge"><title>1&#45;&gt;5</title>
<path fill="none" stroke="black" d="M270.5,-222.907C270.5,-212.204 270.5,-200.615 270.5,-189.776"/>
<polygon fill="black" stroke="black" points="274,-189.667 270.5,-179.667 267,-189.667 274,-189.667"/>
</g>
<!-- 3 -->
<g id="node4" class="node"><title>3</title>
<polygon fill="none" stroke="black" points="113,-68 0,-68 0,-0 113,-0 113,-68"/>
<text text-anchor="start" x="30" y="-52.8" font-family="Times New Roman,serif" font-size="14.00">gini = 0.0</text>
<text text-anchor="start" x="22.5" y="-37.8" font-family="Times New Roman,serif" font-size="14.00">samples = 6</text>
<text text-anchor="start" x="19" y="-22.8" font-family="Times New Roman,serif" font-size="14.00">value = [0, 6]</text>
<text text-anchor="start" x="8" y="-7.8" font-family="Times New Roman,serif" font-size="14.00">class = legendary</text>
</g>
<!-- 2&#45;&gt;3 -->
<g id="edge3" class="edge"><title>2&#45;&gt;3</title>
<path fill="none" stroke="black" d="M100.435,-103.726C94.8371,-94.9703 88.913,-85.7032 83.2886,-76.9051"/>
<polygon fill="black" stroke="black" points="86.1226,-74.8399 77.7874,-68.2996 80.2247,-78.6103 86.1226,-74.8399"/>
</g>
<!-- 4 -->
<g id="node5" class="node"><title>4</title>
<polygon fill="none" stroke="black" points="269.5,-68 131.5,-68 131.5,-0 269.5,-0 269.5,-68"/>
<text text-anchor="start" x="174" y="-52.8" font-family="Times New Roman,serif" font-size="14.00">gini = 0.0</text>
<text text-anchor="start" x="166.5" y="-37.8" font-family="Times New Roman,serif" font-size="14.00">samples = 3</text>
<text text-anchor="start" x="163" y="-22.8" font-family="Times New Roman,serif" font-size="14.00">value = [3, 0]</text>
<text text-anchor="start" x="139.5" y="-7.8" font-family="Times New Roman,serif" font-size="14.00">class = Not legendary</text>
</g>
<!-- 2&#45;&gt;4 -->
<g id="edge4" class="edge"><title>2&#45;&gt;4</title>
<path fill="none" stroke="black" d="M154.055,-103.726C160.034,-94.879 166.365,-85.51 172.366,-76.6303"/>
<polygon fill="black" stroke="black" points="175.297,-78.5448 177.996,-68.2996 169.497,-74.6253 175.297,-78.5448"/>
</g>
<!-- 7 -->
<g id="node8" class="node"><title>7</title>
<polygon fill="none" stroke="black" points="479,-187 358,-187 358,-104 479,-104 479,-187"/>
<text text-anchor="start" x="366" y="-171.8" font-family="Times New Roman,serif" font-size="14.00">Battle Armor ≤ 0.5</text>
<text text-anchor="start" x="385" y="-156.8" font-family="Times New Roman,serif" font-size="14.00">gini = 0.029</text>
<text text-anchor="start" x="381" y="-141.8" font-family="Times New Roman,serif" font-size="14.00">samples = 69</text>
<text text-anchor="start" x="377.5" y="-126.8" font-family="Times New Roman,serif" font-size="14.00">value = [1, 68]</text>
<text text-anchor="start" x="370" y="-111.8" font-family="Times New Roman,serif" font-size="14.00">class = legendary</text>
</g>
<!-- 6&#45;&gt;7 -->
<g id="edge7" class="edge"><title>6&#45;&gt;7</title>
<path fill="none" stroke="black" d="M418.5,-222.907C418.5,-214.649 418.5,-205.864 418.5,-197.302"/>
<polygon fill="black" stroke="black" points="422,-197.021 418.5,-187.021 415,-197.021 422,-197.021"/>
</g>
<!-- 10 -->
<g id="node11" class="node"><title>10</title>
<polygon fill="none" stroke="black" points="635.5,-179.5 497.5,-179.5 497.5,-111.5 635.5,-111.5 635.5,-179.5"/>
<text text-anchor="start" x="540" y="-164.3" font-family="Times New Roman,serif" font-size="14.00">gini = 0.0</text>
<text text-anchor="start" x="532.5" y="-149.3" font-family="Times New Roman,serif" font-size="14.00">samples = 1</text>
<text text-anchor="start" x="529" y="-134.3" font-family="Times New Roman,serif" font-size="14.00">value = [1, 0]</text>
<text text-anchor="start" x="505.5" y="-119.3" font-family="Times New Roman,serif" font-size="14.00">class = Not legendary</text>
</g>
<!-- 6&#45;&gt;10 -->
<g id="edge10" class="edge"><title>6&#45;&gt;10</title>
<path fill="none" stroke="black" d="M469.848,-222.907C484.923,-210.99 501.386,-197.976 516.383,-186.12"/>
<polygon fill="black" stroke="black" points="518.871,-188.614 524.545,-179.667 514.53,-183.123 518.871,-188.614"/>
</g>
<!-- 8 -->
<g id="node9" class="node"><title>8</title>
<polygon fill="none" stroke="black" points="438,-68 325,-68 325,-0 438,-0 438,-68"/>
<text text-anchor="start" x="355" y="-52.8" font-family="Times New Roman,serif" font-size="14.00">gini = 0.0</text>
<text text-anchor="start" x="344" y="-37.8" font-family="Times New Roman,serif" font-size="14.00">samples = 68</text>
<text text-anchor="start" x="340.5" y="-22.8" font-family="Times New Roman,serif" font-size="14.00">value = [0, 68]</text>
<text text-anchor="start" x="333" y="-7.8" font-family="Times New Roman,serif" font-size="14.00">class = legendary</text>
</g>
<!-- 7&#45;&gt;8 -->
<g id="edge8" class="edge"><title>7&#45;&gt;8</title>
<path fill="none" stroke="black" d="M404.723,-103.726C401.887,-95.3351 398.893,-86.4745 396.032,-78.0072"/>
<polygon fill="black" stroke="black" points="399.269,-76.6529 392.752,-68.2996 392.637,-78.8938 399.269,-76.6529"/>
</g>
<!-- 9 -->
<g id="node10" class="node"><title>9</title>
<polygon fill="none" stroke="black" points="594.5,-68 456.5,-68 456.5,-0 594.5,-0 594.5,-68"/>
<text text-anchor="start" x="499" y="-52.8" font-family="Times New Roman,serif" font-size="14.00">gini = 0.0</text>
<text text-anchor="start" x="491.5" y="-37.8" font-family="Times New Roman,serif" font-size="14.00">samples = 1</text>
<text text-anchor="start" x="488" y="-22.8" font-family="Times New Roman,serif" font-size="14.00">value = [1, 0]</text>
<text text-anchor="start" x="464.5" y="-7.8" font-family="Times New Roman,serif" font-size="14.00">class = Not legendary</text>
</g>
<!-- 7&#45;&gt;9 -->
<g id="edge9" class="edge"><title>7&#45;&gt;9</title>
<path fill="none" stroke="black" d="M458.343,-103.726C467.345,-94.5142 476.899,-84.7364 485.891,-75.5343"/>
<polygon fill="black" stroke="black" points="488.475,-77.898 492.961,-68.2996 483.468,-73.0057 488.475,-77.898"/>
</g>
</g>
</svg>
